<?xml version="1.0" encoding="utf-8"?>
<!-- Generator: Adobe Illustrator 16.0.4, SVG Export Plug-In . SVG Version: 6.00 Build 0)  -->
<!DOCTYPE svg PUBLIC "-//W3C//DTD SVG 1.1//EN" "http://www.w3.org/Graphics/SVG/1.1/DTD/svg11.dtd">
<svg version="1.1" id="Layer_1" xmlns="http://www.w3.org/2000/svg" xmlns:xlink="http://www.w3.org/1999/xlink" x="0px" y="0px"
	 width="512px" height="512px" viewBox="0 0 512 512" enable-background="new 0 0 512 512" xml:space="preserve">
<path d="M256,0C114.615,0,0,114.615,0,256c0,141.386,114.615,256,256,256s256-114.614,256-256C512,114.615,397.385,0,256,0z
	 M403.121,180.544c0.146,3.254,0.221,6.528,0.221,9.819c0,100.311-76.354,215.982-215.979,215.982
	c-42.867,0-82.768-12.568-116.362-34.107c5.938,0.704,11.98,1.063,18.107,1.063c35.565,0,68.295-12.139,94.275-32.497
	c-33.217-0.61-61.25-22.562-70.912-52.717c4.637,0.885,9.392,1.361,14.283,1.361c6.923,0,13.629-0.928,19.999-2.662
	c-34.727-6.976-60.894-37.656-60.894-74.434c0-0.32,0-0.64,0.009-0.955c10.234,5.685,21.938,9.1,34.382,9.494
	c-20.37-13.611-33.771-36.847-33.771-63.185c0-13.911,3.744-26.952,10.278-38.162c37.438,45.928,93.374,76.146,156.462,79.314
	c-1.294-5.559-1.965-11.351-1.965-17.302c0-41.92,33.99-75.906,75.909-75.906c21.833,0,41.562,9.218,55.408,23.97
	c17.29-3.403,33.537-9.721,48.206-18.42c-5.668,17.728-17.704,32.604-33.376,41.997c15.355-1.834,29.984-5.916,43.598-11.952
	C430.824,156.471,417.955,169.84,403.121,180.544z"/>
</svg>
